<?xml version="1.0" encoding="UTF-8"?>
<svg xmlns="http://www.w3.org/2000/svg" viewBox="0 0 4096 4158.91">
  <defs>
    <style>
      .cls-1 {
        fill: #d7dee0;
      }

      .cls-1, .cls-2 {
        stroke-width: 0px;
      }

      .cls-2, .cls-3 {
        fill: #fff;
      }

      .cls-3 {
        stroke: #fff;
        stroke-miterlimit: 10;
      }
    </style>
  </defs>
  <g id="Contours">
    <path class="cls-2" d="M3772.24,1697.8c-22.84-111.64-56.93-221.44-101.31-326.38-43.57-103.01-97.49-202.35-160.27-295.28-62.17-92.02-133.56-178.54-212.19-257.18-78.63-78.63-165.16-150.02-257.18-212.19-92.92-62.78-192.27-116.7-295.28-160.27-104.93-44.38-214.74-78.47-326.38-101.31-114.5-23.43-232.33-35.31-350.2-35.31s-235.7,11.88-350.2,35.31c-111.64,22.84-221.44,56.93-326.38,101.31-103.01,43.57-202.35,97.49-295.28,160.27-92.02,62.17-178.54,133.56-257.18,212.19s-150.02,165.16-212.19,257.18c-62.78,92.92-116.7,192.27-160.27,295.28-44.38,104.93-78.47,214.74-101.31,326.38-23.43,114.5-35.31,232.33-35.31,350.2s11.88,235.7,35.31,350.2c22.84,111.63,56.93,221.44,101.31,326.38,43.57,103.01,97.49,202.35,160.27,295.28,62.17,92.02,133.56,178.54,212.19,257.18,78.63,78.63,165.16,150.02,257.18,212.19,92.92,62.78,192.27,116.7,295.28,160.27,74.05,31.32,150.53,57.51,228.37,78.24v-176.87c-646.96-193.29-1119.9-793.88-1119.9-1502.85,0-864.66,703.45-1568.11,1568.11-1568.11s1568.11,703.45,1568.11,1568.11c0,708.97-472.94,1309.56-1119.9,1502.85v176.87c77.84-20.73,154.32-46.92,228.37-78.24,103.01-43.57,202.35-97.49,295.28-160.27,92.02-62.17,178.54-133.56,257.18-212.19,78.63-78.63,150.02-165.16,212.19-257.18,62.78-92.92,116.7-192.27,160.27-295.28,44.38-104.93,78.47-214.74,101.31-326.38,23.43-114.5,35.31-232.33,35.31-350.2s-11.88-235.7-35.31-350.2Z"/>
  </g>
  <g id="Lignes_4" data-name="Lignes 4">
    <g id="Boule_2_-_copie_2" data-name="Boule 2 - copie 2">
      <circle class="cls-2" cx="2064.49" cy="1250.51" r="429.79"/>
    </g>
    <path class="cls-3" d="M3331.04,1317.94c-437.28,143.1-897.13,382.36-1121,792.11-65.28,121.13-110.12,258.38-140.59,404.02-30.48-145.64-75.31-282.88-140.59-404.02-223.7-409.42-682.98-648.63-1119.95-791.76-34.4,59.32-64.73,121.29-90.62,185.53,19.92,5.79,39.78,11.87,59.57,18.23,390.04,127.4,812.87,331.99,1015.84,707.48,126.75,238.63,185.19,551.43,204.44,819.61,4.86,73,14.34,376.18,15.32,454.62.11,8.58.21,17.16.31,25.74.12,0,.24.01.36.02,0,.32,0,.64,0,.97-.12,0-.24,0-.36-.01,0,.2,0,.4,0,.59.12,0,.24,0,.36,0,.21,23.31.42,46.61.62,69.92,1.29,63.5,2.45,125.96,3.13,187.03,17.13.6,34.31.91,51.56.92,17.25-.01,34.43-.32,51.56-.92.68-61.06,1.84-123.53,3.13-187.03.2-23.83.41-47.65.63-71.47.12,0,.57-17.15.68-25.71.98-78.46,10.45-381.67,15.32-454.67,19.25-268.18,77.69-580.98,204.44-819.61,202.96-375.49,625.8-580.08,1015.84-707.48,20.15-6.47,40.39-12.66,60.68-18.55-25.91-64.25-56.26-126.22-90.68-185.54Z"/>
  </g>
  <g id="Boule_5" data-name="Boule 5">
    <g id="Boule_2_-_copie" data-name="Boule 2 - copie">
      <path class="cls-1" d="M2467.89,1101.92c-19.78,185.64-136.72,342.34-296.99,397.41-186.9,64.23-411.05-17.18-533.58-201.43,23.6,215.06,205.83,382.39,427.17,382.39,237.37,0,429.79-192.42,429.79-429.79,0-52.23-9.33-102.28-26.39-148.59Z"/>
    </g>
  </g>
  <g id="Lignes_3" data-name="Lignes 3">
    <g>
      <path class="cls-2" d="M2263.87,3785.92c35.75-3.9,71.17-8.86,106.26-14.85,1.33-87.34,2.08-174.45,3.47-261.24-38.08,7.71-76.68,13.99-115.73,18.8,2.23,87.53,4.88,173.7,6,257.29Z"/>
      <path class="cls-2" d="M2257.87,3528.64c39.05-4.81,77.65-11.1,115.73-18.8.2-12.28.41-24.55.63-36.81-38.54,8.19-77.64,14.85-117.24,19.92.28,11.92.58,23.82.88,35.69Z"/>
      <path class="cls-2" d="M2563.89,2461.59c168.98-280.46,462.99-458.62,763.77-571.26,60.16-22.28,121.33-42.04,183.21-59.13-10.13-67.9-24.94-134.26-44.1-198.76-13.07,4.05-26.11,8.21-39.12,12.48-403.8,134.99-807.27,371.67-1011.66,759.46-164.27,321.87-167.8,715.91-158.99,1088.55,39.6-5.07,78.7-11.74,117.24-19.92.02-1.09.04-2.18.06-3.27,9.12-336.29,16.07-711.69,189.6-1008.16Z"/>
      <path class="cls-2" d="M1766.72,3771.08c35.08,5.99,70.51,10.95,106.26,14.85,1.13-83.59,3.77-169.76,6-257.29-39.05-4.81-77.65-11.1-115.73-18.8,1.39,86.79,2.15,173.91,3.47,261.24Z"/>
      <path class="cls-2" d="M1763.25,3509.84c38.08,7.71,76.68,13.99,115.73,18.8.31-12.02.6-24.06.89-36.12-39.61-5.16-78.72-11.92-117.27-20.2.23,12.5.44,25.01.65,37.52Z"/>
      <path class="cls-2" d="M1720.87,2404.39c-204.39-387.79-607.86-624.47-1011.66-759.46-12.01-3.95-24.05-7.79-36.12-11.54-19.11,64.48-33.87,130.82-43.95,198.69,60.8,16.89,120.91,36.35,180.06,58.25,300.78,112.64,594.79,290.8,763.77,571.26,173.52,296.47,180.48,671.87,189.6,1008.16.02.86.03,1.71.04,2.57,38.54,8.28,77.66,15.04,117.27,20.2,8.8-372.52,5.2-766.38-159-1088.13Z"/>
    </g>
  </g>
</svg>